<svg xmlns="http://www.w3.org/2000/svg" viewBox="0 0 360 240" role="img" aria-label="Hammer curl, front view showing neutral grip">
  <rect width="360" height="240" rx="12" fill="#161616"/>
  <text x="180" y="30" text-anchor="middle" font-family="monospace" font-size="13" fill="#7a7a7a">HAMMER CURL: NEUTRAL GRIP</text>
  <line x1="180" y1="185" x2="180" y2="215" stroke="#2a2a2a" stroke-width="4" stroke-linecap="round"/>
  <g stroke="#4f8ef7" stroke-width="4" stroke-linecap="round" stroke-linejoin="round" fill="none">
    <circle cx="180" cy="75" r="11"/>
    <line x1="180" y1="86" x2="180" y2="120"/>
    <line x1="180" y1="96" x2="165" y2="112"/>
    <line x1="180" y1="96" x2="195" y2="112"/>
    <line x1="180" y1="120" x2="180" y2="185"/>
    <line x1="180" y1="134" x2="168" y2="166"/>
    <line x1="180" y1="134" x2="192" y2="166"/>
    <line x1="180" y1="120" x2="140" y2="130"/>
    <line x1="140" y1="130" x2="118" y2="158"/>
    <line x1="180" y1="120" x2="220" y2="130"/>
    <line x1="220" y1="130" x2="242" y2="158"/>
  </g>
  <line x1="112" y1="170" x2="124" y2="170" stroke="#4f8ef7" stroke-width="5" stroke-linecap="round"/>
  <line x1="236" y1="170" x2="248" y2="170" stroke="#4f8ef7" stroke-width="5" stroke-linecap="round"/>
  <path d="M112 170 L 108 190 M124 170 L 128 190" stroke="#4f8ef7" stroke-width="4" stroke-linecap="round"/>
  <path d="M236 170 L 232 190 M248 170 L 252 190" stroke="#4f8ef7" stroke-width="4" stroke-linecap="round"/>
  <text x="78" y="212" text-anchor="middle" font-family="monospace" font-size="10" fill="#7a7a7a">thumb up</text>
  <text x="282" y="212" text-anchor="middle" font-family="monospace" font-size="10" fill="#7a7a7a">thumb up</text>
  <path d="M118 158 C 100 155, 88 162, 82 172" stroke="#2a2a2a" stroke-width="2" stroke-dasharray="4,4" fill="none"/>
  <text x="180" y="232" text-anchor="middle" font-family="monospace" font-size="10" fill="#7a7a7a">neutral grip reduces wrist strain</text>
</svg>
